#N canvas 414 40 730 587 10;
#X obj 20 81 comport 6 9600;
#X msg 20 47 close;
#X obj 178 313 repack;
#X obj 59 200 f;
#X obj 89 200 + 1;
#X msg 74 178 0;
#X obj 59 225 pack;
#X obj 145 287 unpack;
#X text 189 288 after that index is not necessary;
#X obj 232 462 * 128;
#X obj 205 488 +;
#X msg 259 511 symbol num\$1;
#X obj 205 528 s;
#X obj 346 49 r num0;
#X floatatom 346 111 5 0 0 0 - - -, f 5;
#X obj 191 414 list;
#X obj 178 390 t b l;
#X obj 20 103 sel 192;
#X obj 59 270 route 0 1;
#X obj 84 336 f;
#X obj 84 291 * 128;
#X obj 84 313 t b f;
#X obj 84 360 +;
#X obj 59 157 t b f;
#X text 113 200 give indices to incoming values;
#X text 297 439 reassemble split bytes;
#X text 285 490 and difuse them appropriately;
#X obj 205 440 unpack f f f f;
#X obj 178 368 list split 4;
#X obj 286 462 * 128;
#X obj 259 488 +;
#X obj 178 337 spigot;
#X msg 221 313 1;
#X msg 255 314 0;
#X obj 20 126 t b b b b;
#X text 80 126 reset counter and clear [repack];
#X obj 346 71 t f b;
#X obj 373 92 bng 15 250 50 0 empty empty empty 17 7 0 10 -262144 -1
-1;
#X floatatom 396 111 5 0 0 0 - - -, f 5;
#X obj 396 71 t f b;
#X obj 423 92 bng 15 250 50 0 empty empty empty 17 7 0 10 -262144 -1
-1;
#X floatatom 446 111 5 0 0 0 - - -, f 5;
#X obj 446 71 t f b;
#X obj 473 92 bng 15 250 50 0 empty empty empty 17 7 0 10 -262144 -1
-1;
#X floatatom 496 111 5 0 0 0 - - -, f 5;
#X obj 496 71 t f b;
#X obj 523 92 bng 15 250 50 0 empty empty empty 17 7 0 10 -262144 -1
-1;
#X floatatom 546 111 5 0 0 0 - - -, f 5;
#X obj 546 71 t f b;
#X obj 573 92 bng 15 250 50 0 empty empty empty 17 7 0 10 -262144 -1
-1;
#X floatatom 346 201 5 0 0 0 - - -, f 5;
#X obj 346 161 t f b;
#X obj 373 182 bng 15 250 50 0 empty empty empty 17 7 0 10 -262144
-1 -1;
#X floatatom 396 201 5 0 0 0 - - -, f 5;
#X obj 396 161 t f b;
#X obj 423 182 bng 15 250 50 0 empty empty empty 17 7 0 10 -262144
-1 -1;
#X floatatom 446 201 5 0 0 0 - - -, f 5;
#X obj 446 161 t f b;
#X obj 473 182 bng 15 250 50 0 empty empty empty 17 7 0 10 -262144
-1 -1;
#X floatatom 496 201 5 0 0 0 - - -, f 5;
#X obj 496 161 t f b;
#X obj 523 182 bng 15 250 50 0 empty empty empty 17 7 0 10 -262144
-1 -1;
#X floatatom 546 201 5 0 0 0 - - -, f 5;
#X obj 546 161 t f b;
#X obj 573 182 bng 15 250 50 0 empty empty empty 17 7 0 10 -262144
-1 -1;
#X obj 396 49 r num1;
#X obj 446 49 r num2;
#X obj 496 49 r num3;
#X obj 546 49 r num4;
#X obj 346 139 r num5;
#X obj 396 139 r num6;
#X obj 446 139 r num7;
#X obj 496 139 r num8;
#X obj 546 139 r num9;
#X floatatom 64 27 5 0 0 0 - - -, f 5;
#X obj 20 5 loadbang;
#X msg 118 47 devices;
#X text 67 103 0xc0 initializes transfer data array;
#X text 257 364 then split list in pairs of four \, which are two bytes
\, each split in two (first byte is actual value and second byte is
the value's index);
#X text 344 17 bangs are these to easier visualize which values changed
and which don't;
#X msg 64 47 open \$1;
#X text 64 252 first value (split in two) is number of data;
#X connect 0 0 17 0;
#X connect 1 0 0 0;
#X connect 2 0 31 0;
#X connect 3 0 4 0;
#X connect 3 0 6 0;
#X connect 4 0 3 1;
#X connect 5 0 3 1;
#X connect 6 0 18 0;
#X connect 7 1 2 0;
#X connect 9 0 10 1;
#X connect 10 0 12 0;
#X connect 11 0 12 1;
#X connect 13 0 36 0;
#X connect 15 0 28 0;
#X connect 16 0 15 0;
#X connect 16 1 27 0;
#X connect 17 0 34 0;
#X connect 17 1 23 0;
#X connect 18 0 19 1;
#X connect 18 1 20 0;
#X connect 18 2 7 0;
#X connect 19 0 22 0;
#X connect 20 0 21 0;
#X connect 21 0 19 0;
#X connect 21 1 22 1;
#X connect 22 0 2 1;
#X connect 23 0 3 0;
#X connect 23 1 6 1;
#X connect 27 0 10 0;
#X connect 27 1 9 0;
#X connect 27 2 30 0;
#X connect 27 3 29 0;
#X connect 28 0 16 0;
#X connect 28 1 15 1;
#X connect 29 0 30 1;
#X connect 30 0 11 0;
#X connect 31 0 28 0;
#X connect 32 0 31 1;
#X connect 33 0 31 1;
#X connect 34 0 32 0;
#X connect 34 1 2 0;
#X connect 34 2 33 0;
#X connect 34 3 5 0;
#X connect 36 0 14 0;
#X connect 36 1 37 0;
#X connect 39 0 38 0;
#X connect 39 1 40 0;
#X connect 42 0 41 0;
#X connect 42 1 43 0;
#X connect 45 0 44 0;
#X connect 45 1 46 0;
#X connect 48 0 47 0;
#X connect 48 1 49 0;
#X connect 51 0 50 0;
#X connect 51 1 52 0;
#X connect 54 0 53 0;
#X connect 54 1 55 0;
#X connect 57 0 56 0;
#X connect 57 1 58 0;
#X connect 60 0 59 0;
#X connect 60 1 61 0;
#X connect 63 0 62 0;
#X connect 63 1 64 0;
#X connect 65 0 39 0;
#X connect 66 0 42 0;
#X connect 67 0 45 0;
#X connect 68 0 48 0;
#X connect 69 0 51 0;
#X connect 70 0 54 0;
#X connect 71 0 57 0;
#X connect 72 0 60 0;
#X connect 73 0 63 0;
#X connect 74 0 80 0;
#X connect 75 0 1 0;
#X connect 76 0 0 0;
#X connect 80 0 0 0;
